<svg width="280" height="280" viewBox="0 0 280 280" fill="none" xmlns="http://www.w3.org/2000/svg">
<path d="M22.6631 212.738L136.936 278.285L175.028 212.738H22.6631Z" fill="#1F2FCE"/>
<path d="M140.001 90.9127L98.8467 114.483V161.757L140.001 185.328L181.289 161.757V114.483L140.001 90.9127Z" fill="#1F2FCE"/>
<path d="M21.3311 68.4014L57.5576 131.036L130.277 5.89954L21.3311 68.4014Z" fill="#1F2FCE"/>
<path d="M104.971 63.5018H250.143L141.33 1L104.971 63.5018Z" fill="#1F2FCE"/>
<path d="M187.413 70.652L259.999 195.788V70.652H187.413Z" fill="#1F2FCE"/>
<path d="M222.307 145.204L187.412 205.587L186.346 207.309L149.854 270.34L258.666 207.839L222.307 145.204Z" fill="#1F2FCE"/>
<path d="M20 205.588H92.5862L20 80.4517V205.588Z" fill="#1F2FCE"/>
</svg>
